<svg width="15" height="9" viewBox="0 0 15 9" fill="none" xmlns="http://www.w3.org/2000/svg">
<path fill-rule="evenodd" clip-rule="evenodd" d="M9 4.50037C9 5.36074 8.32875 6.0575 7.5 6.0575C6.67125 6.0575 6 5.36074 6 4.50037C6 3.64 6.67125 2.94324 7.5 2.94324C8.32875 2.94324 9 3.64 9 4.50037ZM7.5 7.44287C5.25825 7.44287 3.14625 6.33556 1.79925 4.50037C3.14625 2.66517 5.25825 1.55713 7.5 1.55713C9.74175 1.55713 11.8537 2.66517 13.2007 4.50037C11.8537 6.33556 9.74175 7.44287 7.5 7.44287ZM7.5 0C4.293 0 1.49925 1.81259 0 4.50037C1.49925 7.18814 4.293 9 7.5 9C10.707 9 13.5007 7.18814 15 4.50037C13.5007 1.81259 10.707 0 7.5 0Z" fill="#717171"/>
</svg>
