<svg width="29" height="28" viewBox="0 0 29 28" fill="none" xmlns="http://www.w3.org/2000/svg">
<path d="M12.2066 1.81796C12.8073 -0.0204434 15.408 -0.0204437 16.0088 1.81796L17.9471 7.74988C18.2158 8.57231 18.9829 9.12868 19.8482 9.12868H26.0966C28.0367 9.12868 28.8405 11.6137 27.2678 12.7499L22.2322 16.3878C21.5273 16.8971 21.2322 17.8035 21.5023 18.6302L23.4303 24.5305C24.0318 26.3712 21.9277 27.9069 20.358 26.7729L15.2789 23.1035C14.5798 22.5984 13.6356 22.5984 12.9365 23.1035L7.85731 26.7729C6.28767 27.9069 4.18356 26.3712 4.78501 24.5305L6.71301 18.6302C6.98313 17.8035 6.68809 16.8971 5.98315 16.3878L0.947575 12.7499C-0.625123 11.6137 0.178615 9.12868 2.1188 9.12868H8.36719C9.23242 9.12868 9.99953 8.57231 10.2683 7.74988L12.2066 1.81796Z" fill="#FFD600"/>
</svg>
