<svg width="29" height="28" viewBox="0 0 29 28" fill="none" xmlns="http://www.w3.org/2000/svg">
<path d="M14.0185 2.12856C14.3188 1.20936 15.6192 1.20936 15.9195 2.12856L17.8579 8.06048C18.261 9.29412 19.4116 10.1287 20.7095 10.1287H26.9579C27.928 10.1287 28.3298 11.3712 27.5435 11.9393L22.5079 15.5772C21.4505 16.3411 21.008 17.7008 21.4131 18.9408L23.3411 24.8411C23.6419 25.7615 22.5898 26.5293 21.805 25.9623L16.7258 22.2929C15.6771 21.5353 14.2609 21.5353 13.2122 22.2929L8.13303 25.9623C7.34821 26.5293 6.29615 25.7615 6.59688 24.8411L8.52488 18.9408C8.93005 17.7008 8.4875 16.3411 7.43009 15.5772L2.39451 11.9393C1.60817 11.3712 2.01003 10.1287 2.98013 10.1287H9.22852C10.5264 10.1287 11.677 9.29413 12.0801 8.06048L14.0185 2.12856Z" stroke="#FFD600" stroke-width="2"/>
</svg>
