<svg width="48" height="48" viewBox="0 0 48 48" fill="none" xmlns="http://www.w3.org/2000/svg">
<path fill-rule="evenodd" clip-rule="evenodd" d="M10.904 6H37.095C39.804 6 42 8.196 42 10.904V37.095C42 39.804 39.804 42 37.096 42H10.904C8.196 42 6 39.804 6 37.096V10.904C6 8.196 8.196 6 10.904 6Z" fill="white"/>
<path fill-rule="evenodd" clip-rule="evenodd" d="M29.208 20.607C30.784 21.733 32.715 22.395 34.8 22.395V18.384C34.405 18.384 34.012 18.343 33.626 18.261V21.418C31.541 21.418 29.611 20.755 28.034 19.63V27.814C28.034 31.908 24.713 35.227 20.617 35.227C19.089 35.227 17.668 34.765 16.488 33.973C17.835 35.349 19.713 36.203 21.791 36.203C25.887 36.203 29.208 32.884 29.208 28.79V20.607ZM30.657 16.561C29.852 15.682 29.323 14.545 29.208 13.288V12.772H28.095C28.375 14.369 29.331 15.734 30.657 16.561ZM19.079 30.832C18.629 30.242 18.386 29.521 18.387 28.779C18.387 26.906 19.906 25.388 21.78 25.388C22.129 25.388 22.476 25.441 22.809 25.547V21.447C22.42 21.394 22.028 21.371 21.635 21.379V24.57C21.302 24.464 20.955 24.411 20.605 24.411C18.731 24.411 17.212 25.929 17.212 27.802C17.213 29.127 17.972 30.274 19.079 30.832Z" fill="#2C9A33" fill-opacity="0.75"/>
<path fill-rule="evenodd" clip-rule="evenodd" d="M28.034 19.63C29.61 20.756 31.541 21.418 33.626 21.418V18.261C32.462 18.013 31.432 17.405 30.657 16.56C29.331 15.733 28.376 14.369 28.096 12.772H25.173V28.79C25.166 30.657 23.65 32.169 21.78 32.169C20.678 32.169 19.699 31.644 19.079 30.831C17.972 30.273 17.213 29.126 17.213 27.802C17.213 25.929 18.732 24.411 20.606 24.411C20.965 24.411 21.311 24.467 21.636 24.57V21.38C17.612 21.463 14.376 24.749 14.376 28.791C14.376 30.809 15.182 32.638 16.49 33.974C17.67 34.766 19.091 35.228 20.619 35.228C24.715 35.228 28.036 31.909 28.036 27.815L28.034 19.63Z" fill="#2C9A33"/>
<path fill-rule="evenodd" clip-rule="evenodd" d="M33.6259 18.2619V17.4079C32.576 17.4099 31.548 17.1159 30.657 16.5599C31.445 17.4229 32.483 18.0179 33.6259 18.2619ZM28.095 12.7719C28.068 12.6189 28.048 12.4659 28.034 12.3109V11.7949H23.998V27.8139C23.992 29.6809 22.475 31.1929 20.605 31.1929C20.056 31.1929 19.538 31.0629 19.079 30.8309C19.699 31.6439 20.678 32.1689 21.78 32.1689C23.65 32.1689 25.166 30.6569 25.173 28.7899V12.7719H28.095ZM21.635 21.3799V20.4709C21.298 20.4249 20.958 20.4019 20.617 20.4019C16.52 20.4019 13.2 23.7209 13.2 27.8149C13.2 30.3819 14.505 32.6439 16.488 33.9739C15.18 32.6379 14.374 30.8089 14.374 28.7909C14.374 24.7489 17.611 21.4629 21.635 21.3799Z" fill="#2C9A33" fill-opacity="0.5"/>
</svg>
