<svg width="25" height="33" viewBox="0 0 25 33" fill="none" xmlns="http://www.w3.org/2000/svg">
<path d="M12.5 0.850006C11.0364 0.850006 9.60566 1.28401 8.38874 2.09713C7.17181 2.91025 6.22334 4.06597 5.66325 5.41815C5.10316 6.77032 4.95662 8.25821 5.24215 9.69367C5.52768 11.1291 6.23246 12.4477 7.26737 13.4826C8.30228 14.5175 9.62083 15.2223 11.0563 15.5078C12.4917 15.7933 13.9796 15.6468 15.3318 15.0867C16.684 14.5266 17.8397 13.5781 18.6528 12.3612C19.466 11.1443 19.9 9.71359 19.9 8.25001C19.8979 6.28803 19.1176 4.407 17.7303 3.01967C16.343 1.63234 14.4619 0.852047 12.5 0.850006ZM12.5 14.1083C11.3413 14.1083 10.2086 13.7648 9.24524 13.121C8.28185 12.4773 7.53097 11.5624 7.08756 10.4919C6.64416 9.42142 6.52815 8.24351 6.75419 7.1071C6.98024 5.9707 7.53819 4.92684 8.35749 4.10754C9.17679 3.28824 10.2206 2.73028 11.3571 2.50424C12.4935 2.27819 13.6714 2.39421 14.7418 2.83761C15.8123 3.28102 16.7273 4.03189 17.371 4.99529C18.0147 5.95869 18.3583 7.09134 18.3583 8.25001C18.3567 9.80323 17.7389 11.2924 16.6406 12.3907C15.5423 13.489 14.0532 14.1067 12.5 14.1083ZM24.8333 32.9167H0.166626V25.9792C0.169074 23.7311 1.0632 21.5758 2.65282 19.9862C4.24244 18.3966 6.39773 17.5025 8.64579 17.5H16.3541C18.6022 17.5025 20.7575 18.3966 22.3471 19.9862C23.9367 21.5758 24.8308 23.7311 24.8333 25.9792V32.9167ZM1.70829 31.375H23.2916V25.9792C23.2896 24.1399 22.558 22.3765 21.2574 21.0759C19.9568 19.7753 18.1934 19.0437 16.3541 19.0417H8.64579C6.80648 19.0437 5.04308 19.7753 3.74249 21.0759C2.4419 22.3765 1.71033 24.1399 1.70829 25.9792V31.375Z" fill="black"/>
</svg>
